# xmcd
# Copyright (C) 1995-1998 Ti Kan
#
# Track frame offsets:
#       150
#       11049
#       26805
#       47787
#       71836
#       88367
#       118788
#
# Disc length: 1714 seconds
#
# Revision: 0
# Processed by: cddbd v1.5.2PL0 Copyright (c) Steve Scherf et al.
# Submitted via: CD-Transfer v1.0
#
DISCID=6406b007
DTITLE=Bad Bastards - Live At K.h.c.
DYEAR=10
DGENRE=
TTITLE0=The Farm Song
TTITLE1=Rodeo
TTITLE2=Canada
TTITLE3=Mean Man
TTITLE4=The Ring Of Fire
TTITLE5=It's So Good
TTITLE6=Joe
EXTD=
EXTT0=
EXTT1=
EXTT2=
EXTT3=
EXTT4=
EXTT5=
EXTT6=
PLAYORDER=
